<svg width="15" height="13" viewBox="0 0 15 13" fill="none" xmlns="http://www.w3.org/2000/svg">
<path d="M14.1956 3.12332C14.0198 2.91234 13.7997 2.74266 13.551 2.62633C13.3022 2.51 13.0309 2.44986 12.7562 2.4502H2.65125L2.625 2.23082C2.57128 1.77483 2.35212 1.3544 2.00906 1.04924C1.666 0.744085 1.22289 0.575409 0.76375 0.575195L0.625 0.575195C0.45924 0.575195 0.300268 0.641043 0.183058 0.758254C0.065848 0.875464 0 1.03444 0 1.2002C0 1.36596 0.065848 1.52493 0.183058 1.64214C0.300268 1.75935 0.45924 1.8252 0.625 1.8252H0.76375C0.916833 1.82522 1.06459 1.88142 1.17898 1.98314C1.29338 2.08487 1.36646 2.22504 1.38437 2.37707L2.24437 9.68957C2.33366 10.4501 2.69905 11.1513 3.27119 11.6602C3.84334 12.1691 4.58241 12.4502 5.34812 12.4502H11.875C12.0408 12.4502 12.1997 12.3843 12.3169 12.2671C12.4342 12.1499 12.5 11.991 12.5 11.8252C12.5 11.6594 12.4342 11.5005 12.3169 11.3833C12.1997 11.266 12.0408 11.2002 11.875 11.2002H5.34812C4.96128 11.1991 4.58425 11.0784 4.26871 10.8546C3.95317 10.6308 3.71457 10.3149 3.58562 9.9502H11.0356C11.7683 9.95024 12.4777 9.69284 13.0399 9.22297C13.6021 8.7531 13.9813 8.10063 14.1112 7.37957L14.6019 4.65832C14.6508 4.38832 14.6398 4.11086 14.5696 3.84559C14.4994 3.58033 14.3717 3.33374 14.1956 3.12332ZM13.375 4.43645L12.8837 7.1577C12.8057 7.59082 12.5778 7.98269 12.2399 8.26469C11.902 8.5467 11.4757 8.70086 11.0356 8.7002H3.38687L2.79875 3.7002H12.7562C12.8481 3.69965 12.9389 3.71933 13.0222 3.75786C13.1055 3.79638 13.1794 3.85279 13.2385 3.92308C13.2975 3.99336 13.3404 4.0758 13.364 4.16453C13.3876 4.25326 13.3913 4.3461 13.375 4.43645Z" fill="white"/>
</svg>
