<svg width="20" height="21" viewBox="0 0 20 21" fill="none" xmlns="http://www.w3.org/2000/svg">
<path d="M1.09927 11.1074L4.06757 13.3457L2.94029 16.9504C2.75811 17.5094 2.7558 18.1143 2.93371 18.6748C3.11161 19.2354 3.46019 19.7215 3.9275 20.0608C4.38679 20.411 4.94338 20.5986 5.51433 20.5957C6.08528 20.5927 6.64002 20.3994 7.0959 20.0445L9.99833 17.8388L12.9016 20.0419C13.3601 20.3901 13.9136 20.5792 14.4828 20.5821C15.0519 20.5849 15.6072 20.4014 16.069 20.0578C16.5307 19.7142 16.875 19.2283 17.0524 18.67C17.2299 18.1116 17.2312 17.5096 17.0564 16.9504L15.9291 13.3457L18.8974 11.1074C19.3553 10.7617 19.6956 10.2755 19.8699 9.71821C20.0441 9.1609 20.0434 8.56098 19.8677 8.00415C19.692 7.44732 19.3503 6.96205 18.8916 6.61767C18.4328 6.27329 17.8804 6.08741 17.3132 6.08658H13.667L12.5606 2.52587C12.3866 1.96538 12.0447 1.47643 11.5842 1.12953C11.1237 0.782631 10.5684 0.595703 9.99833 0.595703C9.4283 0.595703 8.87299 0.782631 8.41249 1.12953C7.95198 1.47643 7.61008 1.96538 7.43609 2.52587L6.32965 6.08658H2.68681C2.11962 6.08741 1.56719 6.27329 1.10843 6.61767C0.649667 6.96205 0.30804 7.44732 0.132344 8.00415C-0.0433522 8.56098 -0.0441299 9.1609 0.130122 9.71821C0.304374 10.2755 0.644742 10.7617 1.10261 11.1074H1.09927Z" fill="#FF9244"/>
</svg>
