<svg data-v-fde0c5aa="" xmlns="http://www.w3.org/2000/svg" viewBox="0 0 300 300" class="iconLeftSlogan"><!----><defs data-v-fde0c5aa=""><!----></defs><rect data-v-fde0c5aa="" fill="#E87D22" x="0" y="0" width="300px" height="300px" class="logo-background-square"></rect><defs data-v-fde0c5aa=""><!----></defs>
<defs data-v-fde0c5aa=""><!----></defs>
<g data-v-fde0c5aa="" id="53f1206d-51bc-4caf-bd07-9b225ef2ff29" stroke="none" fill="#762A0C" transform="matrix(0.9207046152193822,0,0,0.9207046152193822,40.00092070465895,103.9638464060168)"><path d="M96.033 24.973V11.588H88.04l-5.45 1.816-5.451-1.816H74.67l-7.446 1.861-7.446-1.861h-2.47l-5.45 1.816-5.451-1.816h-4.153v13.354l-.549 5.852H32.65V18.309a6.729 6.729 0 0 0-6.722-6.721H-.001v11.524h21.127v7.682H9.602v11.524h3.995l3.842 46.096h82.56l-3.966-63.441zM3.841 19.27v-3.842H25.93a2.884 2.884 0 0 1 2.881 2.881v12.485h-3.842V19.27H3.841zm32.806 65.302H20.975l-3.522-42.254h22.715l-3.521 42.254zm7.529-46.096H13.444v-3.84h30.732v3.84zm42.251 17.286l-1.799 28.811H48.185l1.76-21.126 1.761-21.128h3.993V30.794H45.564l.36-3.842h42.303l-1.8 28.81zm1.925-32.65H46.097v-7.581l5.763 1.922 6.072-2.025h1.373l7.919 1.98 7.918-1.98h1.373l6.075 2.025 5.762-1.922v7.581z"></path></g><defs data-v-fde0c5aa=""><!----></defs>
<g data-v-fde0c5aa="" id="4a82fa4f-be6b-4dfb-b339-aedf3c186c9b" fill="#ffffff" transform="matrix(0.38969738289145495,0,0,0.38969738289145495,144.88339974629866,166.55804010389392)"><path d="M3.86 4.37C1.82 4.37 0.48 5.98 0.48 7.98C0.48 9.98 1.82 11.59 3.86 11.59C5.03 11.59 5.85 11.12 6.37 10.36L6.37 11.48L7.42 11.48L7.42 1.68L6.37 1.68L6.37 5.61C5.85 4.86 5.03 4.37 3.86 4.37ZM4.00 10.64C2.45 10.64 1.53 9.42 1.53 7.98C1.53 6.54 2.45 5.32 4.00 5.32C5.56 5.32 6.43 6.54 6.43 7.98C6.43 9.42 5.56 10.64 4.00 10.64ZM19.36 10.64C17.95 10.64 17.04 9.65 16.88 8.40L22.75 8.40L22.75 7.98C22.75 5.98 21.42 4.37 19.28 4.37C17.14 4.37 15.81 5.98 15.81 7.98C15.81 9.98 17.21 11.59 19.35 11.59C21.01 11.59 22.05 10.72 22.54 9.46L21.39 9.46C21.01 10.16 20.34 10.64 19.36 10.64ZM19.28 5.32C20.62 5.32 21.46 6.23 21.66 7.42L16.90 7.42C17.09 6.23 17.93 5.32 19.28 5.32ZM32.09 1.68L31.04 1.68L31.04 11.48L32.09 11.48ZM40.91 11.48L41.96 11.48L41.96 4.48L40.91 4.48ZM40.87 1.93L40.87 3.30L42 3.30L42 1.93ZM55.50 4.48L53.30 10.36L51.09 4.48L49.94 4.48L52.68 11.48L53.91 11.48L56.64 4.48ZM67.66 10.64C66.25 10.64 65.34 9.65 65.18 8.40L71.05 8.40L71.05 7.98C71.05 5.98 69.72 4.37 67.58 4.37C65.44 4.37 64.11 5.98 64.11 7.98C64.11 9.98 65.51 11.59 67.65 11.59C69.31 11.59 70.35 10.72 70.84 9.46L69.69 9.46C69.31 10.16 68.64 10.64 67.66 10.64ZM67.58 5.32C68.92 5.32 69.76 6.23 69.96 7.42L65.20 7.42C65.39 6.23 66.23 5.32 67.58 5.32ZM82.96 4.37C81.23 4.37 80.53 5.73 80.39 6.20L80.39 4.48L79.34 4.48L79.34 11.48L80.39 11.48L80.39 8.40C80.39 6.86 81.34 5.42 82.91 5.42L83.03 5.42L83.03 4.37ZM101.15 4.48L101.15 11.48L102.20 11.48L102.20 7.45C102.20 6.19 103.15 5.32 104.31 5.32C105.46 5.32 106.27 6.16 106.27 7.43L106.27 11.48L107.32 11.48L107.32 7.41C107.32 5.42 105.97 4.37 104.52 4.37C103.39 4.37 102.70 4.90 102.20 5.57L102.20 4.48ZM119.11 4.37C116.97 4.37 115.64 5.98 115.64 7.98C115.64 9.98 116.97 11.59 119.11 11.59C121.25 11.59 122.58 9.98 122.58 7.98C122.58 5.98 121.25 4.37 119.11 4.37ZM119.11 10.64C117.56 10.64 116.69 9.42 116.69 7.98C116.69 6.54 117.56 5.32 119.11 5.32C120.67 5.32 121.53 6.54 121.53 7.98C121.53 9.42 120.67 10.64 119.11 10.64ZM143.39 4.37C141.58 4.37 140.64 5.11 140.64 6.37C140.64 8.93 145.31 7.84 145.31 9.59C145.31 10.54 144.09 10.70 143.51 10.70C142.16 10.70 141.62 10.00 141.55 9.28L140.46 9.28C140.53 10.51 141.55 11.59 143.50 11.59C145.24 11.59 146.36 10.85 146.36 9.49C146.36 6.86 141.69 7.95 141.69 6.27C141.69 5.59 142.27 5.26 143.36 5.26C144.54 5.26 144.98 5.75 145.07 6.36L146.13 6.36C146.01 5.33 145.24 4.37 143.39 4.37ZM158.26 11.59C160.30 11.59 161.64 9.98 161.64 7.98C161.64 5.98 160.30 4.37 158.26 4.37C157.09 4.37 156.27 4.84 155.75 5.60L155.75 4.48L154.70 4.48L154.70 14.25L155.75 14.25L155.75 10.35C156.27 11.10 157.09 11.59 158.26 11.59ZM158.12 5.32C159.67 5.32 160.59 6.54 160.59 7.98C160.59 9.42 159.67 10.64 158.12 10.64C156.56 10.64 155.69 9.42 155.69 7.98C155.69 6.54 156.56 5.32 158.12 5.32ZM173.14 10.64C171.72 10.64 170.81 9.65 170.66 8.40L176.53 8.40L176.53 7.98C176.53 5.98 175.20 4.37 173.05 4.37C170.91 4.37 169.58 5.98 169.58 7.98C169.58 9.98 170.98 11.59 173.12 11.59C174.79 11.59 175.83 10.72 176.32 9.46L175.17 9.46C174.79 10.16 174.12 10.64 173.14 10.64ZM173.05 5.32C174.40 5.32 175.24 6.23 175.43 7.42L170.67 7.42C170.87 6.23 171.71 5.32 173.05 5.32ZM187.94 10.64C186.52 10.64 185.61 9.65 185.46 8.40L191.32 8.40L191.32 7.98C191.32 5.98 189.99 4.37 187.85 4.37C185.71 4.37 184.38 5.98 184.38 7.98C184.38 9.98 185.78 11.59 187.92 11.59C189.59 11.59 190.62 10.72 191.11 9.46L189.97 9.46C189.59 10.16 188.92 10.64 187.94 10.64ZM187.85 5.32C189.20 5.32 190.04 6.23 190.23 7.42L185.47 7.42C185.67 6.23 186.51 5.32 187.85 5.32ZM202.57 4.37C200.52 4.37 199.18 5.98 199.18 7.98C199.18 9.98 200.52 11.59 202.57 11.59C203.73 11.59 204.55 11.12 205.07 10.36L205.07 11.48L206.12 11.48L206.12 1.68L205.07 1.68L205.07 5.61C204.55 4.86 203.73 4.37 202.57 4.37ZM202.71 10.64C201.15 10.64 200.23 9.42 200.23 7.98C200.23 6.54 201.15 5.32 202.71 5.32C204.26 5.32 205.13 6.54 205.13 7.98C205.13 9.42 204.26 10.64 202.71 10.64ZM227.88 4.37C225.83 4.37 224.49 5.98 224.49 7.98C224.49 9.98 225.83 11.59 227.88 11.59C229.04 11.59 229.87 11.12 230.38 10.36L230.38 11.48L231.43 11.48L231.43 1.68L230.38 1.68L230.38 5.61C229.87 4.86 229.04 4.37 227.88 4.37ZM228.02 10.64C226.46 10.64 225.54 9.42 225.54 7.98C225.54 6.54 226.46 5.32 228.02 5.32C229.57 5.32 230.44 6.54 230.44 7.98C230.44 9.42 229.57 10.64 228.02 10.64ZM243.21 4.37C241.16 4.37 239.82 5.98 239.82 7.98C239.82 9.98 241.16 11.59 243.21 11.59C244.37 11.59 245.20 11.12 245.71 10.36L245.71 11.48L246.76 11.48L246.76 4.48L245.71 4.48L245.71 5.61C245.20 4.86 244.37 4.37 243.21 4.37ZM243.35 10.64C241.79 10.64 240.87 9.42 240.87 7.98C240.87 6.54 241.79 5.32 243.35 5.32C244.90 5.32 245.77 6.54 245.77 7.98C245.77 9.42 244.90 10.64 243.35 10.64ZM266.62 1.68L265.57 1.68L265.57 11.48L266.62 11.48ZM281.54 11.48L281.54 4.48L280.49 4.48L280.49 8.51C280.49 9.77 279.54 10.64 278.38 10.64C277.23 10.64 276.42 9.80 276.42 8.53L276.42 4.48L275.37 4.48L275.37 8.55C275.37 10.54 276.72 11.59 278.17 11.59C279.30 11.59 279.99 11.06 280.49 10.39L280.49 11.48ZM295.40 5.46L295.40 4.48L289.94 4.48L289.94 5.45L294.07 5.45L289.88 10.49L289.88 11.48L295.40 11.48L295.40 10.50L291.20 10.50Z"></path></g></svg>