<svg data-v-423bf9ae="" xmlns="http://www.w3.org/2000/svg" viewBox="0 0 200.31023654605585 60" class="font"><!----><!----><!----><g data-v-423bf9ae="" id="184a75fb-2720-4e52-a3fa-e7dcae9b8209" fill="black" transform="matrix(5.474453012044838,0,0,5.474453012044838,-2.354018277823286,-14.726279392488486)"><path d="M7.56 13.47L7.56 2.87L5.03 2.87L4.28 6.71C4.16 7.39 4.07 7.81 4.02 8.27L3.93 8.27C3.88 7.81 3.81 7.39 3.68 6.71L2.98 2.87L0.43 2.87L0.43 13.47L1.99 13.47L1.99 6.15L2.06 6.15C2.10 6.51 2.18 6.93 2.25 7.28L3.61 13.47L4.40 13.47L5.73 7.29C5.81 6.92 5.89 6.51 5.94 6.15L6.01 6.15L6.01 13.47ZM12.45 13.47L12.45 11.63L10.19 11.63L10.19 8.89L12.42 8.89L12.42 7.22L10.19 7.22L10.19 4.62L12.46 4.62L12.46 2.87L8.47 2.87L8.47 13.47ZM18.26 13.47L18.26 13.41C18.19 13.19 18.14 12.99 18.06 12.18C17.95 11.14 17.92 10.42 17.77 9.62C17.65 9.06 17.53 8.71 17.25 8.51L17.25 8.43C17.71 8.19 18.07 8.06 18.07 5.73C18.07 3.65 17.67 2.87 16.04 2.87L13.31 2.87L13.31 13.47L15.04 13.47L15.04 9.17L15.50 9.17C15.82 9.17 15.93 9.30 16.04 10.07C16.16 10.88 16.18 11.62 16.24 12.15C16.34 13.09 16.37 13.26 16.45 13.47ZM15.04 7.62L15.04 4.58L15.71 4.58C16.06 4.58 16.34 4.61 16.34 5.92C16.34 7.59 16.07 7.62 15.62 7.62ZM20.72 13.47L20.72 2.87L18.96 2.87L18.96 13.47ZM24.67 9.41C24.68 9.55 24.68 9.65 24.68 9.81C24.68 10.61 24.65 11.05 24.57 11.42C24.51 11.68 24.35 11.82 24.02 11.82C23.60 11.82 23.46 11.72 23.39 11.47C23.28 11.09 23.24 10.64 23.24 8.06C23.24 5.53 23.28 5.11 23.39 4.75C23.46 4.49 23.60 4.40 23.97 4.40C24.32 4.40 24.43 4.49 24.51 4.68C24.61 4.89 24.67 5.38 24.67 6.01C24.67 6.38 24.67 6.55 24.65 6.75L26.29 6.75C26.32 6.50 26.32 6.34 26.32 5.89C26.32 4.66 26.17 3.81 25.83 3.33C25.54 2.88 25.03 2.69 23.97 2.69C22.79 2.69 22.30 2.91 21.98 3.54C21.71 4.06 21.53 4.56 21.53 8.08C21.53 11.35 21.66 12.17 21.97 12.78C22.27 13.43 22.83 13.65 24.02 13.65C25.96 13.65 26.35 12.59 26.35 10.36C26.35 9.90 26.35 9.66 26.31 9.41ZM31.46 12.78C31.77 12.14 31.89 11.49 31.89 8.16C31.89 4.83 31.77 4.21 31.46 3.56C31.15 2.91 30.60 2.69 29.47 2.69C28.31 2.69 27.78 2.91 27.47 3.56C27.16 4.21 27.03 4.83 27.03 8.16C27.03 11.49 27.16 12.14 27.47 12.78C27.78 13.44 28.31 13.65 29.47 13.65C30.60 13.65 31.15 13.44 31.46 12.78ZM30.04 11.47C29.97 11.72 29.82 11.82 29.47 11.82C29.11 11.82 28.97 11.72 28.90 11.47C28.78 11.10 28.74 10.72 28.74 8.12C28.74 5.47 28.78 5.11 28.90 4.75C28.97 4.49 29.11 4.40 29.47 4.40C29.82 4.40 29.97 4.49 30.04 4.76C30.14 5.11 30.18 5.47 30.18 8.12C30.18 10.72 30.16 11.09 30.04 11.47ZM36.79 6.16C36.86 5.91 36.89 5.59 36.89 5.00C36.89 3.28 36.47 2.69 34.71 2.69C33.01 2.69 32.48 3.26 32.48 5.26C32.48 7.20 32.58 7.52 33.04 7.94C33.57 8.43 34.62 8.79 35.11 9.28C35.39 9.56 35.42 9.67 35.42 10.44C35.42 11.77 35.25 11.90 34.69 11.90C34.16 11.90 34.01 11.70 34.01 10.54C34.01 10.28 34.01 10.08 34.03 9.93L32.59 9.93C32.54 10.18 32.49 10.57 32.49 11.02C32.49 13.20 33.11 13.65 34.66 13.65C36.44 13.65 37.02 13.09 37.02 10.47C37.02 8.57 36.85 8.29 36.18 7.83C35.73 7.52 34.78 7.13 34.34 6.75C34.06 6.50 34.05 6.41 34.05 5.52C34.05 4.51 34.19 4.37 34.71 4.37C35.31 4.37 35.39 4.69 35.39 5.50C35.39 5.84 35.38 6.01 35.36 6.16Z"></path></g><!----><!----></svg>