<svg width="48" height="38" viewBox="0 0 48 38" fill="none" xmlns="http://www.w3.org/2000/svg">
<path d="M45.9006 6.5181V0H42.0979L39.5051 0.884338L36.9118 0H35.7372L32.1947 0.906252L28.6523 0H27.4772L24.8844 0.884338L22.2911 0H20.3153V6.503L20.0541 9.35275H15.7462V3.27293C15.7452 2.40513 15.4079 1.57317 14.8084 0.959585C14.2089 0.346002 13.396 0.000902139 12.5482 0H0.212524V5.61185H10.2637V9.35275H4.78114V14.9646H6.68176L8.50958 37.412H47.7874L45.9006 6.5181ZM2.04035 3.74091V1.86997H12.5492C12.9126 1.87035 13.261 2.01829 13.5179 2.28131C13.7749 2.54433 13.9194 2.90096 13.9198 3.27293V9.35275H12.092V3.74091H2.04035ZM17.6478 35.541H10.1918L8.51624 14.9646H19.3229L17.6478 35.541ZM21.2297 13.0937H6.60897V11.2237H21.2297V13.0937ZM41.3306 21.5114L40.4747 35.5415H23.137L23.9743 25.2538L24.8121 14.9651H26.7117V9.35275H21.89L22.0613 7.48181H42.1869L41.3306 21.5114ZM42.2464 5.61185H22.1436V1.92012L24.8853 2.85608L27.7741 1.86997H28.4273L32.1947 2.83417L35.9617 1.86997H36.6149L39.5051 2.85608L42.2464 1.92012V5.61185Z" fill="#E85D04"/>
</svg>
