<svg width="48" height="38" viewBox="0 0 48 38" fill="none" xmlns="http://www.w3.org/2000/svg">
<path d="M45.9006 6.8121V0.294006H42.0979L39.5051 1.17834L36.9118 0.294006H35.7372L32.1947 1.20026L28.6523 0.294006H27.4772L24.8844 1.17834L22.2911 0.294006H20.3153V6.79701L20.0541 9.64676H15.7462V3.56693C15.7452 2.69913 15.4079 1.86718 14.8084 1.25359C14.2089 0.640008 13.396 0.294908 12.5482 0.294006H0.212524V5.90585H10.2637V9.64676H4.78114V15.2586H6.68176L8.50958 37.706H47.7874L45.9006 6.8121ZM2.04035 4.03491V2.16397H12.5492C12.9126 2.16436 13.261 2.3123 13.5179 2.57532C13.7749 2.83834 13.9194 3.19496 13.9198 3.56693V9.64676H12.092V4.03491H2.04035ZM17.6478 35.8351H10.1918L8.51624 15.2586H19.3229L17.6478 35.8351ZM21.2297 13.3877H6.60897V11.5177H21.2297V13.3877ZM41.3306 21.8054L40.4747 35.8355H23.137L23.9743 25.5478L24.8121 15.2591H26.7117V9.64676H21.89L22.0613 7.77582H42.1869L41.3306 21.8054ZM42.2464 5.90585H22.1436V2.21413L24.8853 3.15009L27.7741 2.16397H28.4273L32.1947 3.12817L35.9617 2.16397H36.6149L39.5051 3.15009L42.2464 2.21413V5.90585Z" fill="#ffffff"/>
</svg>
