<svg xmlns="http://www.w3.org/2000/svg" version="1.1" viewBox="0 0 352 254">
<g stroke-width="2.00" fill="none" stroke-linecap="butt">
<path stroke="#e1aa79" vector-effect="non-scaling-stroke" d="
  M 255.50 116.04
  Q 255.02 115.80 254.88 115.31
  Q 254.75 114.89 254.52 115.23
  Q 252.51 118.16 252.02 121.58
  A 1.58 1.58 1.6 0 1 250.58 122.94
  Q 248.08 123.13 246.06 124.56
  Q 244.39 125.75 240.67 130.54
  Q 238.26 133.64 235.22 136.40
  Q 231.09 140.14 227.34 144.24
  Q 221.97 150.13 219.73 152.33
  Q 210.81 161.11 201.94 169.94
  Q 198.66 173.20 192.99 182.04
  Q 192.71 182.48 190.09 185.61
  Q 188.59 187.40 187.89 189.80"
/>
<path stroke="#d6916f" vector-effect="non-scaling-stroke" d="
  M 187.89 189.80
  L 145.31 159.56
  A 1.48 0.86 -54.2 0 0 143.75 160.25
  Q 140.44 164.83 139.52 170.27
  Q 139.10 172.76 138.09 174.42
  Q 133.49 181.98 128.47 189.28
  Q 128.22 189.65 128.13 190.18
  Q 127.92 191.40 127.20 192.36
  Q 126.10 193.82 126.06 193.88
  Q 121.31 201.70 116.49 209.47
  Q 113.94 213.60 108.94 218.69
  Q 107.05 220.61 105.72 223.65
  Q 104.56 226.31 103.50 227.32
  Q 101.90 228.84 99.79 229.75"
/>
<path stroke="#d99875" vector-effect="non-scaling-stroke" d="
  M 222.13 213.82
  L 187.89 189.80"
/>
</g>
<path fill="#dda272" d="
  M 255.50 116.04
  Q 255.02 115.80 254.88 115.31
  Q 254.75 114.89 254.52 115.23
  Q 252.51 118.16 252.02 121.58
  A 1.58 1.58 1.6 0 1 250.58 122.94
  Q 248.08 123.13 246.06 124.56
  Q 244.39 125.75 240.67 130.54
  Q 238.26 133.64 235.22 136.40
  Q 231.09 140.14 227.34 144.24
  Q 221.97 150.13 219.73 152.33
  Q 210.81 161.11 201.94 169.94
  Q 198.66 173.20 192.99 182.04
  Q 192.71 182.48 190.09 185.61
  Q 188.59 187.40 187.89 189.80
  L 145.31 159.56
  A 1.48 0.86 -54.2 0 0 143.75 160.25
  Q 140.44 164.83 139.52 170.27
  Q 139.10 172.76 138.09 174.42
  Q 133.49 181.98 128.47 189.28
  Q 128.22 189.65 128.13 190.18
  Q 127.92 191.40 127.20 192.36
  Q 126.10 193.82 126.06 193.88
  Q 121.31 201.70 116.49 209.47
  Q 113.94 213.60 108.94 218.69
  Q 107.05 220.61 105.72 223.65
  Q 104.56 226.31 103.50 227.32
  Q 101.90 228.84 99.79 229.75
  Q 95.01 217.25 96.08 204.36
  Q 96.91 194.48 101.27 185.14
  Q 108.31 170.06 122.84 159.54
  A 1.41 1.41 49.9 0 0 123.02 157.41
  Q 120.89 155.24 120.25 152.99
  Q 119.50 150.34 121.38 148.42
  Q 123.70 146.04 127.70 147.89
  A 2.65 2.64 -51.6 0 0 130.43 147.57
  Q 205.51 88.32 279.63 29.14
  Q 279.69 29.08 280.70 28.18
  Q 283.04 26.07 285.26 28.38
  A 1.54 1.52 -57.4 0 1 285.60 29.96
  L 255.50 116.04
  Z"
/>
<path fill="#e4b17f" d="
  M 255.50 116.04
  L 222.13 213.82
  L 187.89 189.80
  Q 188.59 187.40 190.09 185.61
  Q 192.71 182.48 192.99 182.04
  Q 198.66 173.20 201.94 169.94
  Q 210.81 161.11 219.73 152.33
  Q 221.97 150.13 227.34 144.24
  Q 231.09 140.14 235.22 136.40
  Q 238.26 133.64 240.67 130.54
  Q 244.39 125.75 246.06 124.56
  Q 248.08 123.13 250.58 122.94
  A 1.58 1.58 1.6 0 0 252.02 121.58
  Q 252.51 118.16 254.52 115.23
  Q 254.75 114.89 254.88 115.31
  Q 255.02 115.80 255.50 116.04
  Z"
/>
<path fill="#E85D04"
    d="
  M 187.89 189.80
  L 222.13 213.82
  Q 222.53 214.64 223.16 215.32
  Q 224.07 216.30 224.29 216.70
  Q 225.63 219.11 224.71 221.42
  Q 223.88 223.51 221.57 224.27
  Q 218.25 225.35 215.31 222.88
  A 1.11 1.05 29.9 0 0 213.57 223.30
  L 210.50 232.52
  A 1.00 0.94 10.9 0 0 211.40 233.76
  Q 219.02 234.28 226.73 235.37
  Q 227.90 235.54 227.50 236.02
  Q 227.32 236.24 226.92 236.29
  Q 216.35 237.64 200.25 238.00
  Q 147.04 239.18 103.27 237.59
  Q 103.18 237.59 98.23 237.53
  Q 93.09 237.47 88.23 236.38
  Q 86.52 235.99 88.23 235.75
  L 99.19 234.22
  A 1.16 0.83 5.5 0 0 99.96 233.77
  Q 101.06 231.86 99.79 229.75
  Q 101.90 228.84 103.50 227.32
  Q 104.56 226.31 105.72 223.65
  Q 107.05 220.61 108.94 218.69
  Q 113.94 213.60 116.49 209.47
  Q 121.31 201.70 126.06 193.88
  Q 126.10 193.82 127.20 192.36
  Q 127.92 191.40 128.13 190.18
  Q 128.22 189.65 128.47 189.28
  Q 133.49 181.98 138.09 174.42
  Q 139.10 172.76 139.52 170.27
  Q 140.44 164.83 143.75 160.25
  A 1.48 0.86 -54.2 0 1 145.31 159.56
  L 187.89 189.80
  Z"
  />
</svg>
